<?xml version="1.0" encoding="utf-8"?>
<!-- Generator: Adobe Illustrator 15.0.2, SVG Export Plug-In . SVG Version: 6.00 Build 0)  -->
<!DOCTYPE svg PUBLIC "-//W3C//DTD SVG 1.1//EN" "http://www.w3.org/Graphics/SVG/1.1/DTD/svg11.dtd">
<svg version="1.1" id="Layer_1" xmlns="http://www.w3.org/2000/svg" xmlns:xlink="http://www.w3.org/1999/xlink" x="0px" y="0px"
	 width="775.87px" height="143.488px" viewBox="9.065 218.616 775.87 143.488"
	 enable-background="new 9.065 218.616 775.87 143.488" xml:space="preserve">
<g>
	<g>
		<path fill="#FFFFFF" d="M30.792,232.878h6.248l-20.591,95.996h57.229l-1.135,5.396H9.065L30.792,232.878z"/>
		<path fill="#FFFFFF" d="M94.41,261.28h5.396l-15.194,72.991h-5.397L94.41,261.28z M100.375,232.878h5.397l-2.983,14.626h-5.396
			L100.375,232.878z"/>
		<path fill="#FFFFFF" d="M107.474,339.385c0,5.964,1.845,10.457,5.537,13.488c3.693,3.028,8.521,4.546,14.486,4.546
			c5.113,0,9.374-0.69,12.782-2.062c3.408-1.372,6.223-3.244,8.449-5.609c2.224-2.368,3.977-5.183,5.255-8.447
			c1.278-3.268,2.343-6.748,3.194-10.44l3.266-14.484h-0.284c-2.748,4.831-6.273,8.569-10.579,11.219
			c-4.311,2.65-9.351,3.978-15.125,3.978c-4.543,0-8.52-0.712-11.928-2.132c-3.408-1.42-6.228-3.452-8.449-6.107
			c-2.225-2.647-3.883-5.771-4.97-9.372c-1.089-3.598-1.634-7.621-1.634-12.07c0-5.113,0.803-10.2,2.415-15.266
			c1.609-5.064,3.927-9.607,6.958-13.633c3.03-4.023,6.792-7.264,11.289-9.728c4.496-2.46,9.586-3.692,15.266-3.692
			c3.218,0,6.295,0.496,9.231,1.489c2.934,0.998,5.514,2.367,7.739,4.118c2.223,1.755,4,3.883,5.326,6.391
			c1.325,2.509,2.035,5.278,2.13,8.307h0.285l4.118-18.602h5.396l-15.054,69.581c-1.042,5.018-2.414,9.448-4.117,13.281
			c-1.705,3.834-3.954,7.099-6.746,9.799c-2.794,2.699-6.226,4.731-10.296,6.105c-4.072,1.37-8.997,2.062-14.771,2.062
			c-3.502,0-6.793-0.497-9.87-1.493c-3.076-0.994-5.728-2.464-7.952-4.402c-2.226-1.94-3.955-4.308-5.183-7.097
			c-1.229-2.795-1.75-6.037-1.562-9.73h5.396V339.385z M143.544,264.26c-4.829,0-9.16,1.113-12.995,3.338
			c-3.833,2.226-7.053,5.111-9.656,8.663c-2.606,3.552-4.594,7.551-5.964,12.001c-1.374,4.449-2.06,8.853-2.06,13.204
			c0,7.953,1.797,14.179,5.396,18.674c3.598,4.501,9.373,6.749,17.324,6.749c4.923,0,9.231-1.256,12.923-3.764
			c3.692-2.509,6.792-5.68,9.301-9.517c2.507-3.834,4.377-8.067,5.61-12.708c1.229-4.638,1.846-9.089,1.846-13.349
			c0-4.447-0.758-8.164-2.272-11.148c-1.516-2.98-3.362-5.37-5.538-7.17c-2.179-1.797-4.545-3.075-7.101-3.833
			C147.803,264.641,145.532,264.26,143.544,264.26z"/>
		<path fill="#FFFFFF" d="M200.629,232.878h5.396l-9.371,43.738h0.282c3.218-5.113,7.29-9.231,12.213-12.357
			c4.922-3.122,10.65-4.686,17.182-4.686c2.744,0,5.371,0.451,7.882,1.349c2.505,0.902,4.708,2.226,6.602,3.979
			c1.892,1.75,3.407,3.883,4.543,6.387c1.137,2.512,1.704,5.328,1.704,8.452c0,0.849-0.071,1.942-0.213,3.267
			c-0.141,1.324-0.333,2.696-0.568,4.115c-0.237,1.419-0.475,2.768-0.709,4.047c-0.238,1.279-0.451,2.343-0.639,3.196l-8.946,39.903
			h-5.398l8.947-39.763c0.093-0.659,0.259-1.607,0.497-2.84c0.235-1.23,0.473-2.529,0.71-3.904c0.235-1.37,0.448-2.769,0.64-4.189
			c0.188-1.421,0.284-2.649,0.284-3.693c0-4.638-1.491-8.399-4.474-11.287c-2.982-2.89-7.221-4.334-12.708-4.334
			c-4.639,0-8.784,1.09-12.426,3.266c-3.647,2.181-6.818,4.997-9.514,8.449c-2.699,3.46-4.948,7.294-6.746,11.504
			c-1.8,4.214-3.125,8.357-3.977,12.427l-7.243,34.364h-5.397L200.629,232.878z"/>
		<path fill="#FFFFFF" d="M257.716,261.28h13.491l4.971-22.863h5.396l-4.97,22.863h15.621l-1.136,4.685h-15.337l-11.076,50.838
			c-0.097,0.19-0.191,0.592-0.285,1.208c-0.094,0.617-0.212,1.279-0.354,1.987c-0.142,0.711-0.262,1.399-0.356,2.061
			c-0.095,0.662-0.142,1.135-0.142,1.421c0,2.083,0.64,3.617,1.917,4.611c1.277,0.997,3.383,1.492,6.319,1.492
			c2.649,0,5.347-0.144,8.093-0.425l-0.994,4.685c-0.946,0-2.226,0.073-3.833,0.214c-1.61,0.145-3.266,0.212-4.97,0.212
			c-4.259,0-7.314-0.945-9.159-2.837c-1.846-1.897-2.768-4.591-2.768-8.099c0-0.941,0.142-2.079,0.426-3.406
			c0.284-1.323,0.519-2.509,0.71-3.552l11.077-50.412h-13.775L257.716,261.28z"/>
	</g>
	<g>
		<path fill="#FFFFFF" d="M322.786,334.83c0.952,2.214,2.343,3.972,4.167,5.27c1.822,1.305,3.988,2.237,6.507,2.802
			c2.516,0.564,5.25,0.846,8.203,0.846c2.082,0,4.163-0.261,6.247-0.782c2.082-0.521,3.97-1.3,5.661-2.343
			c1.696-1.038,3.079-2.384,4.167-4.032c1.082-1.652,1.624-3.647,1.624-5.99c0-2.256-0.694-4.104-2.082-5.532
			c-1.389-1.432-3.188-2.668-5.401-3.71c-2.213-1.041-4.732-1.953-7.55-2.733c-2.823-0.781-5.663-1.605-8.527-2.475
			c-2.952-0.866-5.813-1.907-8.59-3.123c-2.779-1.216-5.275-2.776-7.487-4.688c-2.213-1.907-3.991-4.251-5.336-7.029
			c-1.348-2.775-2.018-6.159-2.018-10.151c0-5.208,1.084-9.634,3.253-13.28c2.168-3.646,4.99-6.615,8.461-8.916
			c3.47-2.299,7.395-3.991,11.782-5.077c4.38-1.083,8.83-1.628,13.342-1.628c4.771,0,9.259,0.545,13.472,1.628
			c4.207,1.085,7.896,2.843,11.063,5.272c3.168,2.431,5.684,5.532,7.551,9.308c1.863,3.775,2.796,8.354,2.796,13.733h-19.397
			c0.089-2.604-0.281-4.794-1.105-6.574c-0.824-1.776-1.999-3.233-3.512-4.36c-1.521-1.127-3.323-1.932-5.405-2.408
			c-2.081-0.477-4.294-0.716-6.637-0.716c-1.91,0-3.841,0.195-5.793,0.586c-1.952,0.389-3.709,1.041-5.27,1.952
			c-1.564,0.91-2.823,2.105-3.777,3.58c-0.955,1.477-1.43,3.3-1.43,5.469c0,2.257,0.846,4.146,2.537,5.663
			c1.691,1.517,3.731,2.777,6.119,3.774c2.385,1,4.833,1.779,7.354,2.343c2.517,0.564,4.556,1.021,6.12,1.367
			c3.644,0.957,6.983,2.062,10.021,3.317c3.037,1.26,5.662,2.887,7.875,4.883c2.212,1.998,3.925,4.426,5.142,7.29
			c1.215,2.864,1.825,6.378,1.825,10.545c0,5.558-1.152,10.284-3.452,14.19c-2.3,3.906-5.253,7.074-8.853,9.501
			c-3.602,2.431-7.659,4.191-12.172,5.274s-8.981,1.626-13.406,1.626c-13.02,0-22.714-2.647-29.094-7.939
			c-6.379-5.291-9.568-13.625-9.568-24.994h19.396C321.438,329.862,321.829,332.618,322.786,334.83z"/>
		<path fill="#FFFFFF" d="M442.025,264.471c4.685,0,9,0.455,12.95,1.367s7.356,2.408,10.222,4.493c2.86,2.082,5.094,4.861,6.7,8.331
			c1.609,3.472,2.411,7.766,2.411,12.886c0,5.121-0.978,9.697-2.929,13.733c-1.955,4.037-4.602,7.443-7.94,10.22
			c-3.346,2.778-7.184,4.902-11.522,6.379c-4.341,1.476-8.938,2.213-13.796,2.213h-25.254l-7.03,33.325h-20.306l19.267-92.945
			L442.025,264.471L442.025,264.471z M437.078,308.209c5.206,0,9.31-1.322,12.305-3.97c2.99-2.646,4.487-6.746,4.487-12.302
			c0-2.342-0.411-4.274-1.237-5.793c-0.822-1.519-1.929-2.689-3.318-3.514c-1.387-0.825-2.927-1.411-4.618-1.758
			c-1.695-0.346-3.453-0.521-5.273-0.521h-17.441l-5.729,27.857H437.078L437.078,308.209z"/>
		<path fill="#FFFFFF" d="M699.114,264.471c13.101,0,22.951,3.148,29.548,9.438c6.595,6.293,9.891,15.21,9.891,26.75
			c0,8.071-1.124,15.578-3.379,22.519c-2.259,6.945-5.622,12.956-10.091,18.03c-4.468,5.075-10.066,9.046-16.795,11.912
			c-6.724,2.865-14.556,4.293-23.495,4.293h-38.791l19.526-92.944h33.586V264.471z M685.707,340.232
			c5.204,0,9.828-0.951,13.863-2.865c4.033-1.906,7.42-4.511,10.154-7.809c2.733-3.297,4.816-7.115,6.247-11.457
			c1.433-4.337,2.148-8.981,2.148-13.927c0-3.384-0.37-6.445-1.105-9.179c-0.739-2.731-1.935-5.097-3.581-7.094
			c-1.651-1.994-3.754-3.533-6.313-4.62c-2.562-1.084-5.66-1.627-9.308-1.627h-15.361l-12.492,58.578L685.707,340.232
			L685.707,340.232z"/>
		<g>
			<polygon fill="#FFFFFF" points="508.671,281.654 508.671,281.653 559.181,281.653 562.692,264.471 491.748,264.471 
				488.16,281.654 			"/>
			<polygon fill="#FFFFFF" points="504.517,301.521 484.019,301.521 472.353,357.416 543.95,357.416 547.593,340.232 
				496.307,340.232 501.123,317.452 547.854,317.452 551.24,301.571 504.507,301.571 			"/>
		</g>
		<g>
			<polygon fill="#FFFFFF" points="595.495,281.654 595.495,281.653 646.006,281.653 649.517,264.471 578.572,264.471 
				574.986,281.654 			"/>
			<polygon fill="#FFFFFF" points="591.342,301.521 570.843,301.521 559.177,357.416 630.774,357.416 634.417,340.232 
				583.134,340.232 587.947,317.452 634.678,317.452 638.064,301.571 591.331,301.571 			"/>
		</g>
	</g>
	<g>
		<g>
			<polygon fill="#FFFFFF" points="784.934,218.616 686.595,252.872 746.095,257.449 			"/>
			<polygon fill="#FFFFFF" points="784.934,218.616 750.675,316.957 746.1,257.451 			"/>
		</g>
		<g>
			<line fill="none" x1="746.097" y1="257.449" x2="784.935" y2="218.616"/>
			<polygon fill="#FFFFFF" points="745.581,256.934 784.935,218.616 746.612,257.966 			"/>
		</g>
	</g>
</g>
</svg>
