<?xml version="1.0" encoding="utf-8"?>
<!-- Generator: Adobe Illustrator 15.0.2, SVG Export Plug-In . SVG Version: 6.00 Build 0)  -->
<!DOCTYPE svg PUBLIC "-//W3C//DTD SVG 1.1//EN" "http://www.w3.org/Graphics/SVG/1.1/DTD/svg11.dtd">
<svg version="1.1" id="Layer_1" xmlns="http://www.w3.org/2000/svg" xmlns:xlink="http://www.w3.org/1999/xlink" x="0px" y="0px"
	 width="430.098px" height="109.45px" viewBox="0 0 430.098 109.45" enable-background="new 0 0 430.098 109.45"
	 xml:space="preserve">
<g>
	<g>
		<path fill="#FFFFFF" d="M232.58,87.897h7.295c0.48,0,1.012,0.057,1.598,0.168c0.584,0.113,1.127,0.34,1.631,0.684
			c0.504,0.346,0.924,0.834,1.26,1.465c0.336,0.633,0.504,1.461,0.504,2.484c0,1.504-0.463,2.664-1.391,3.48
			c-0.93,0.814-2.256,1.223-3.984,1.223h-5.855v7.633h-1.057V87.897z M233.636,96.489h6.023c0.768,0,1.42-0.115,1.955-0.348
			c0.537-0.23,0.965-0.531,1.285-0.9c0.32-0.367,0.551-0.775,0.695-1.223c0.145-0.449,0.217-0.896,0.217-1.344
			c0-0.32-0.049-0.701-0.145-1.141s-0.289-0.863-0.576-1.271s-0.691-0.752-1.213-1.033c-0.52-0.279-1.211-0.42-2.074-0.42h-6.168
			V96.489z"/>
		<path fill="#FFFFFF" d="M245.011,98.866c0-0.881,0.123-1.709,0.371-2.484s0.613-1.459,1.094-2.053
			c0.479-0.592,1.07-1.059,1.775-1.402c0.703-0.344,1.512-0.518,2.424-0.518s1.719,0.174,2.424,0.518
			c0.703,0.344,1.297,0.811,1.775,1.402c0.48,0.594,0.844,1.277,1.092,2.053s0.373,1.604,0.373,2.484
			c0,0.879-0.125,1.713-0.373,2.496s-0.611,1.467-1.092,2.051c-0.479,0.586-1.072,1.049-1.775,1.393
			c-0.705,0.344-1.512,0.516-2.424,0.516s-1.721-0.172-2.424-0.516c-0.705-0.344-1.297-0.807-1.775-1.393
			c-0.48-0.584-0.846-1.268-1.094-2.051S245.011,99.745,245.011,98.866z M245.923,98.866c0,0.736,0.104,1.443,0.312,2.123
			c0.207,0.682,0.512,1.285,0.912,1.812c0.398,0.527,0.895,0.947,1.486,1.26s1.273,0.469,2.041,0.469s1.447-0.156,2.039-0.469
			s1.088-0.732,1.488-1.26s0.705-1.131,0.912-1.812c0.209-0.68,0.312-1.387,0.312-2.123s-0.104-1.443-0.312-2.125
			c-0.207-0.68-0.512-1.283-0.912-1.811c-0.4-0.529-0.896-0.949-1.488-1.26c-0.592-0.312-1.271-0.469-2.039-0.469
			s-1.449,0.156-2.041,0.469c-0.592,0.311-1.088,0.73-1.486,1.26c-0.4,0.527-0.705,1.131-0.912,1.811
			C246.027,97.422,245.923,98.129,245.923,98.866z"/>
		<path fill="#FFFFFF" d="M261.546,103.977h0.049l3.359-11.279h1.225l3.383,11.279h0.049l3.455-11.279h1.01l-3.961,12.336h-1.127
			l-3.385-11.184h-0.049l-3.408,11.184h-1.15l-3.912-12.336h0.982L261.546,103.977z"/>
		<path fill="#FFFFFF" d="M275.707,98.985v0.145c0,0.721,0.096,1.408,0.289,2.064c0.191,0.656,0.477,1.232,0.854,1.729
			s0.85,0.887,1.42,1.176c0.568,0.287,1.23,0.432,1.984,0.432c1.236,0,2.215-0.324,2.938-0.973c0.721-0.648,1.219-1.547,1.492-2.699
			h0.912c-0.273,1.439-0.861,2.543-1.766,3.312c-0.904,0.768-2.1,1.15-3.588,1.15c-0.912,0-1.707-0.164-2.387-0.492
			c-0.682-0.326-1.248-0.775-1.705-1.344c-0.455-0.566-0.795-1.238-1.02-2.016c-0.225-0.775-0.336-1.611-0.336-2.508
			c0-0.863,0.115-1.691,0.348-2.484c0.232-0.791,0.58-1.488,1.045-2.088c0.463-0.6,1.043-1.08,1.74-1.439
			c0.695-0.359,1.516-0.541,2.459-0.541c0.863,0,1.629,0.16,2.293,0.48c0.662,0.32,1.219,0.756,1.668,1.309
			c0.447,0.551,0.787,1.191,1.02,1.92c0.23,0.729,0.348,1.508,0.348,2.34c0,0.08-0.004,0.172-0.012,0.275
			c-0.008,0.105-0.012,0.189-0.012,0.252H275.707z M284.779,98.194c-0.033-0.672-0.145-1.309-0.338-1.908
			c-0.191-0.6-0.477-1.129-0.854-1.584c-0.377-0.457-0.834-0.82-1.371-1.092c-0.539-0.271-1.152-0.408-1.842-0.408
			c-0.738,0-1.387,0.141-1.949,0.42s-1.035,0.648-1.42,1.104c-0.385,0.457-0.682,0.988-0.891,1.596
			c-0.207,0.609-0.336,1.232-0.385,1.873H284.779z"/>
		<path fill="#FFFFFF" d="M288.738,95.434h0.072c0.111-0.4,0.316-0.777,0.613-1.129c0.295-0.352,0.654-0.656,1.078-0.912
			s0.896-0.451,1.416-0.588c0.521-0.135,1.061-0.195,1.621-0.18v0.912c-0.48-0.064-1.029-0.016-1.645,0.145
			s-1.203,0.512-1.764,1.055c-0.225,0.24-0.42,0.473-0.588,0.697c-0.168,0.223-0.309,0.471-0.42,0.744
			c-0.111,0.271-0.201,0.576-0.264,0.912c-0.064,0.336-0.105,0.734-0.121,1.199v6.744h-0.912V92.698h0.912V95.434z"/>
		<path fill="#FFFFFF" d="M294.546,98.985v0.145c0,0.721,0.096,1.408,0.289,2.064c0.191,0.656,0.477,1.232,0.854,1.729
			s0.85,0.887,1.42,1.176c0.568,0.287,1.23,0.432,1.984,0.432c1.236,0,2.215-0.324,2.938-0.973c0.721-0.648,1.219-1.547,1.492-2.699
			h0.912c-0.273,1.439-0.861,2.543-1.766,3.312c-0.904,0.768-2.1,1.15-3.588,1.15c-0.912,0-1.707-0.164-2.387-0.492
			c-0.682-0.326-1.248-0.775-1.705-1.344c-0.455-0.566-0.795-1.238-1.02-2.016c-0.225-0.775-0.336-1.611-0.336-2.508
			c0-0.863,0.115-1.691,0.348-2.484c0.232-0.791,0.58-1.488,1.045-2.088c0.463-0.6,1.043-1.08,1.74-1.439
			c0.695-0.359,1.516-0.541,2.459-0.541c0.863,0,1.629,0.16,2.293,0.48c0.662,0.32,1.219,0.756,1.668,1.309
			c0.447,0.551,0.787,1.191,1.02,1.92c0.23,0.729,0.348,1.508,0.348,2.34c0,0.08-0.004,0.172-0.012,0.275
			c-0.008,0.105-0.012,0.189-0.012,0.252H294.546z M303.619,98.194c-0.033-0.672-0.145-1.309-0.338-1.908
			c-0.191-0.6-0.477-1.129-0.854-1.584c-0.377-0.457-0.834-0.82-1.371-1.092c-0.539-0.271-1.152-0.408-1.842-0.408
			c-0.738,0-1.387,0.141-1.949,0.42s-1.035,0.648-1.42,1.104c-0.385,0.457-0.682,0.988-0.891,1.596
			c-0.207,0.609-0.336,1.232-0.385,1.873H303.619z"/>
		<path fill="#FFFFFF" d="M316.195,102.393h-0.049c-0.512,0.977-1.152,1.709-1.92,2.197c-0.768,0.486-1.703,0.73-2.809,0.73
			c-0.928,0-1.727-0.176-2.398-0.527s-1.225-0.824-1.656-1.416s-0.752-1.275-0.961-2.053c-0.207-0.775-0.312-1.588-0.312-2.436
			c0-0.912,0.113-1.764,0.336-2.557c0.225-0.791,0.564-1.475,1.021-2.051c0.455-0.576,1.027-1.033,1.715-1.369
			s1.496-0.504,2.424-0.504c0.496,0,0.984,0.068,1.465,0.205s0.924,0.332,1.332,0.588s0.764,0.576,1.068,0.959
			c0.303,0.385,0.535,0.816,0.695,1.297h0.049v-7.561h0.912v17.137h-0.912V102.393z M311.611,104.53c0.783,0,1.459-0.16,2.027-0.48
			s1.039-0.744,1.416-1.271c0.375-0.529,0.656-1.133,0.84-1.812s0.275-1.371,0.275-2.076c0-0.719-0.092-1.42-0.275-2.1
			s-0.459-1.287-0.828-1.824c-0.367-0.535-0.844-0.963-1.428-1.283s-1.268-0.48-2.053-0.48c-0.814,0-1.512,0.156-2.088,0.469
			c-0.576,0.311-1.051,0.73-1.428,1.26c-0.375,0.527-0.648,1.135-0.816,1.824c-0.168,0.688-0.252,1.398-0.252,2.135
			c0,0.721,0.092,1.42,0.277,2.1c0.184,0.682,0.463,1.285,0.84,1.812c0.375,0.527,0.852,0.947,1.428,1.26
			S310.81,104.53,311.611,104.53z"/>
		<path fill="#FFFFFF" d="M326.849,87.897h6.865c1.023,0,1.879,0.129,2.568,0.385c0.688,0.256,1.238,0.592,1.654,1.008
			s0.717,0.893,0.9,1.428c0.184,0.537,0.277,1.076,0.277,1.621c0,0.463-0.082,0.902-0.24,1.318c-0.16,0.416-0.389,0.785-0.686,1.105
			c-0.295,0.32-0.646,0.588-1.055,0.803c-0.408,0.217-0.861,0.357-1.355,0.42l0.047,0.049c0.111-0.016,0.375,0.031,0.793,0.145
			c0.416,0.111,0.852,0.322,1.307,0.635c0.457,0.312,0.865,0.744,1.225,1.297c0.359,0.551,0.539,1.26,0.539,2.123
			c0,0.785-0.143,1.473-0.432,2.064c-0.287,0.592-0.691,1.092-1.211,1.5c-0.521,0.408-1.148,0.717-1.885,0.924
			c-0.736,0.209-1.553,0.312-2.447,0.312h-6.865V87.897z M333.714,95.674c1.455,0,2.543-0.324,3.264-0.973s1.08-1.5,1.08-2.557
			c0-0.623-0.121-1.146-0.359-1.572c-0.24-0.424-0.561-0.768-0.961-1.031s-0.859-0.451-1.381-0.564
			c-0.52-0.111-1.066-0.168-1.643-0.168h-5.809v6.865H333.714z M333.714,104.122c1.535,0,2.74-0.324,3.611-0.973
			c0.873-0.648,1.309-1.619,1.309-2.916c0-0.734-0.152-1.34-0.457-1.811c-0.303-0.473-0.691-0.844-1.164-1.117
			c-0.471-0.271-1-0.459-1.584-0.564c-0.584-0.104-1.156-0.156-1.715-0.156h-5.809v7.537H333.714z"/>
		<path fill="#FFFFFF" d="M340.314,92.698h1.08l4.584,11.256l4.225-11.256h1.031l-5.279,13.656
			c-0.256,0.607-0.492,1.131-0.709,1.572c-0.215,0.439-0.459,0.764-0.732,0.971c-0.32,0.256-0.699,0.412-1.139,0.469
			c-0.441,0.055-1.02,0.084-1.74,0.084v-0.793c0.656,0,1.168-0.051,1.535-0.156c0.369-0.104,0.713-0.314,1.033-0.635
			c0.176-0.176,0.359-0.5,0.551-0.973c0.193-0.473,0.432-1.115,0.721-1.932L340.314,92.698z"/>
		<path fill="#FFFFFF" d="M359.296,87.897h1.057v9.865l10.775-9.865h1.369l-7.824,7.129l8.305,10.008h-1.32l-7.752-9.289
			l-3.553,3.24v6.049h-1.057V87.897z"/>
		<path fill="#FFFFFF" d="M379.146,104.122h0.047l5.928-16.225h1.057l-6.408,17.137h-1.225l-6.383-17.137h1.104L379.146,104.122z"/>
		<path fill="#FFFFFF" d="M387.353,87.897h1.057v7.777h10.943v-7.777h1.057v17.137h-1.057v-8.449H388.41v8.449h-1.057V87.897z"/>
	</g>
	<g>
		<g>
			<path fill="#FFFFFF" d="M12.044,7.905h3.463L4.093,61.122h31.725l-0.629,2.99H0L12.044,7.905z"/>
			<path fill="#FFFFFF" d="M47.311,23.649h2.991l-8.423,40.462h-2.992L47.311,23.649z M50.617,7.905h2.992l-1.653,8.108h-2.991
				L50.617,7.905z"/>
			<path fill="#FFFFFF" d="M54.553,66.946c0,3.307,1.023,5.799,3.07,7.479s4.723,2.52,8.03,2.52c2.834,0,5.195-0.381,7.085-1.141
				c1.889-0.762,3.45-1.799,4.684-3.109c1.232-1.312,2.204-2.875,2.913-4.686s1.299-3.738,1.771-5.785l1.811-8.03h-0.158
				c-1.522,2.676-3.477,4.75-5.864,6.219c-2.389,1.469-5.184,2.203-8.384,2.203c-2.519,0-4.723-0.393-6.612-1.18
				s-3.452-1.916-4.684-3.385c-1.233-1.469-2.152-3.201-2.755-5.196c-0.604-1.994-0.905-4.225-0.905-6.691
				c0-2.834,0.445-5.654,1.338-8.463c0.892-2.807,2.177-5.326,3.857-7.557c1.679-2.23,3.765-4.027,6.258-5.393
				c2.492-1.364,5.314-2.047,8.462-2.047c1.784,0,3.49,0.275,5.117,0.826c1.626,0.552,3.057,1.312,4.29,2.283
				c1.232,0.972,2.217,2.152,2.952,3.542c0.734,1.392,1.128,2.927,1.181,4.605h0.158l2.283-10.312h2.992l-8.345,38.574
				c-0.578,2.781-1.338,5.234-2.283,7.359c-0.945,2.127-2.192,3.938-3.739,5.434c-1.549,1.494-3.452,2.623-5.708,3.385
				c-2.257,0.76-4.986,1.141-8.187,1.141c-1.942,0-3.766-0.275-5.471-0.826c-1.706-0.551-3.176-1.365-4.408-2.441
				c-1.234-1.076-2.192-2.389-2.873-3.936c-0.682-1.549-0.971-3.346-0.866-5.393H54.553z M74.548,25.303
				c-2.677,0-5.078,0.617-7.203,1.85c-2.125,1.234-3.91,2.834-5.353,4.803c-1.444,1.968-2.546,4.186-3.306,6.651
				c-0.762,2.468-1.142,4.908-1.142,7.321c0,4.408,0.996,7.859,2.991,10.352c1.994,2.492,5.196,3.738,9.604,3.738
				c2.729,0,5.117-0.693,7.164-2.086c2.047-1.389,3.765-3.148,5.156-5.274c1.39-2.125,2.427-4.474,3.11-7.045
				c0.681-2.571,1.023-5.039,1.023-7.4c0-2.466-0.42-4.526-1.259-6.18c-0.84-1.653-1.864-2.978-3.07-3.976
				c-1.208-0.996-2.519-1.704-3.936-2.125C76.91,25.513,75.65,25.303,74.548,25.303z"/>
			<path fill="#FFFFFF" d="M106.193,7.905h2.991l-5.195,24.246h0.157c1.784-2.834,4.041-5.117,6.77-6.849
				c2.728-1.731,5.904-2.598,9.525-2.598c1.521,0,2.978,0.25,4.369,0.748c1.39,0.499,2.61,1.233,3.66,2.204
				c1.049,0.972,1.89,2.152,2.519,3.542c0.63,1.392,0.945,2.952,0.945,4.685c0,0.472-0.04,1.076-0.118,1.811
				c-0.079,0.735-0.185,1.495-0.315,2.282c-0.131,0.787-0.263,1.535-0.394,2.244c-0.131,0.708-0.25,1.299-0.354,1.771l-4.959,22.121
				h-2.992l4.959-22.042c0.052-0.366,0.144-0.892,0.276-1.574c0.13-0.682,0.262-1.403,0.394-2.165
				c0.13-0.76,0.249-1.535,0.354-2.322c0.104-0.787,0.158-1.469,0.158-2.047c0-2.57-0.827-4.656-2.48-6.258
				c-1.653-1.601-4.002-2.401-7.045-2.401c-2.572,0-4.869,0.604-6.888,1.811c-2.021,1.208-3.779,2.769-5.274,4.684
				c-1.496,1.917-2.743,4.042-3.739,6.377c-0.998,2.336-1.732,4.632-2.204,6.888l-4.015,19.05h-2.992L106.193,7.905z"/>
			<path fill="#FFFFFF" d="M137.839,23.649h7.479l2.755-12.674h2.991l-2.755,12.674h8.66l-0.63,2.598h-8.502l-6.14,28.183
				c-0.053,0.105-0.106,0.328-0.158,0.669c-0.053,0.342-0.118,0.709-0.197,1.103c-0.079,0.393-0.145,0.773-0.197,1.141
				c-0.053,0.367-0.079,0.629-0.079,0.787c0,1.154,0.354,2.008,1.063,2.559c0.708,0.551,1.875,0.826,3.503,0.826
				c1.469,0,2.964-0.078,4.487-0.236l-0.551,2.598c-0.525,0-1.234,0.039-2.125,0.119c-0.893,0.078-1.811,0.117-2.755,0.117
				c-2.361,0-4.054-0.523-5.078-1.574c-1.023-1.049-1.535-2.545-1.535-4.486c0-0.525,0.079-1.154,0.236-1.891
				c0.158-0.734,0.288-1.389,0.394-1.967l6.141-27.946h-7.636L137.839,23.649z"/>
		</g>
		<g>
			<path fill="#FFFFFF" d="M173.91,64.422c0.528,1.227,1.299,2.201,2.309,2.922c1.011,0.723,2.212,1.24,3.608,1.553
				c1.395,0.312,2.91,0.469,4.546,0.469c1.155,0,2.31-0.145,3.464-0.434s2.201-0.721,3.139-1.299
				c0.938-0.576,1.707-1.322,2.31-2.236c0.601-0.914,0.901-2.021,0.901-3.32c0-1.25-0.385-2.273-1.154-3.066
				s-1.768-1.479-2.994-2.057c-1.227-0.576-2.623-1.083-4.186-1.515c-1.564-0.433-3.139-0.89-4.727-1.371
				c-1.637-0.48-3.224-1.058-4.763-1.731c-1.54-0.674-2.923-1.539-4.149-2.599c-1.227-1.058-2.213-2.356-2.958-3.896
				c-0.747-1.539-1.119-3.415-1.119-5.628c0-2.887,0.602-5.341,1.805-7.361c1.201-2.021,2.766-3.667,4.69-4.942
				c1.923-1.274,4.1-2.213,6.53-2.814c2.429-0.601,4.895-0.902,7.396-0.902c2.646,0,5.134,0.302,7.468,0.902
				c2.334,0.602,4.378,1.576,6.135,2.923s3.151,3.066,4.187,5.159c1.033,2.093,1.551,4.631,1.551,7.613h-10.753
				c0.047-1.443-0.156-2.658-0.613-3.645c-0.458-0.985-1.107-1.792-1.948-2.417c-0.843-0.625-1.841-1.07-2.995-1.335
				s-2.381-0.397-3.68-0.397c-1.059,0-2.129,0.108-3.211,0.325c-1.083,0.216-2.057,0.577-2.923,1.082s-1.563,1.167-2.093,1.984
				c-0.529,0.818-0.794,1.829-0.794,3.031c0,1.251,0.47,2.298,1.407,3.139c0.938,0.842,2.068,1.54,3.392,2.093
				c1.323,0.554,2.681,0.986,4.077,1.299c1.395,0.313,2.525,0.566,3.392,0.758c2.021,0.53,3.872,1.144,5.556,1.84
				c1.684,0.698,3.14,1.6,4.366,2.706c1.228,1.107,2.177,2.453,2.852,4.041c0.674,1.587,1.01,3.537,1.01,5.845
				c0,3.08-0.638,5.701-1.913,7.865c-1.275,2.166-2.911,3.922-4.906,5.268c-1.997,1.348-4.246,2.322-6.748,2.924
				c-2.502,0.6-4.979,0.9-7.432,0.9c-7.217,0-12.592-1.467-16.128-4.4s-5.304-7.553-5.304-13.855h10.752
				C173.163,61.668,173.379,63.196,173.91,64.422z"/>
			<path fill="#FFFFFF" d="M240.008,25.419c2.598,0,4.99,0.253,7.18,0.758c2.189,0.506,4.078,1.335,5.666,2.49
				c1.586,1.154,2.824,2.694,3.715,4.618c0.891,1.925,1.336,4.306,1.336,7.144c0,2.839-0.541,5.376-1.623,7.613
				c-1.084,2.237-2.551,4.125-4.402,5.664c-1.854,1.541-3.982,2.718-6.387,3.537c-2.406,0.818-4.955,1.227-7.648,1.227h-14
				l-3.896,18.473h-11.257l10.679-51.523H240.008z M237.266,49.665c2.887,0,5.16-0.732,6.82-2.2c1.658-1.467,2.488-3.74,2.488-6.819
				c0-1.299-0.229-2.369-0.686-3.211s-1.07-1.491-1.84-1.948s-1.623-0.782-2.561-0.975c-0.939-0.191-1.914-0.289-2.924-0.289h-9.67
				l-3.174,15.442H237.266z"/>
			<path fill="#FFFFFF" d="M382.526,25.419c7.262,0,12.723,1.745,16.379,5.232c3.656,3.488,5.484,8.432,5.484,14.829
				c0,4.474-0.625,8.636-1.875,12.483c-1.252,3.85-3.115,7.182-5.594,9.994c-2.477,2.814-5.58,5.016-9.309,6.604
				s-8.07,2.381-13.025,2.381h-21.504l10.824-51.523H382.526z M375.092,67.417c2.887,0,5.449-0.527,7.686-1.588
				c2.236-1.057,4.113-2.5,5.629-4.328s2.67-3.945,3.463-6.351c0.795-2.404,1.191-4.979,1.191-7.721
				c0-1.876-0.205-3.572-0.613-5.088c-0.41-1.515-1.072-2.825-1.984-3.933c-0.916-1.105-2.082-1.959-3.5-2.562
				c-1.42-0.601-3.139-0.902-5.16-0.902h-8.516l-6.926,32.472H375.092z"/>
			<g>
				<polygon fill="#FFFFFF" points="276.954,34.945 276.954,34.944 304.954,34.944 306.901,25.419 267.573,25.419 265.584,34.945 
									"/>
				<polygon fill="#FFFFFF" points="274.651,45.958 263.286,45.958 256.821,76.942 296.51,76.942 298.53,67.417 270.1,67.417 
					272.77,54.789 298.674,54.789 300.551,45.985 274.645,45.985 				"/>
			</g>
			<g>
				<polygon fill="#FFFFFF" points="325.084,34.945 325.084,34.944 353.084,34.944 355.032,25.419 315.704,25.419 313.715,34.945 
									"/>
				<polygon fill="#FFFFFF" points="322.782,45.958 311.417,45.958 304.952,76.942 344.641,76.942 346.661,67.417 318.231,67.417 
					320.901,54.789 346.805,54.789 348.682,45.985 322.776,45.985 				"/>
			</g>
		</g>
		<g>
			<polygon fill="#FFFFFF" points="430.098,0 375.584,18.99 408.569,21.527 			"/>
			<polygon fill="#FFFFFF" points="430.098,0 411.108,54.514 408.571,21.529 			"/>
			<g>
				<line fill="#FFFFFF" x1="408.57" y1="21.527" x2="430.099" y2="0"/>
				<polygon fill="#FFFFFF" points="408.216,21.174 430.099,0 408.923,21.881 				"/>
			</g>
		</g>
	</g>
</g>
</svg>
